<svg xmlns="http://www.w3.org/2000/svg" viewBox="0 0 600 400">
  <defs>
    <pattern id="grid-gene" width="20" height="20" patternUnits="userSpaceOnUse">
      <path d="M 20 0 L 0 0 0 20" fill="none" stroke="#1a1a1a" stroke-width="0.5"/>
    </pattern>
    <linearGradient id="heat-hi" x1="0" y1="0" x2="0" y2="1">
      <stop offset="0%" stop-color="#cc0000"/>
      <stop offset="100%" stop-color="#880000"/>
    </linearGradient>
    <linearGradient id="heat-mid" x1="0" y1="0" x2="0" y2="1">
      <stop offset="0%" stop-color="#662222"/>
      <stop offset="100%" stop-color="#441111"/>
    </linearGradient>
  </defs>
  <rect width="600" height="400" fill="#111"/>
  <rect width="600" height="400" fill="url(#grid-gene)"/>
  <!-- HUD corners -->
  <path d="M 15 15 L 15 40 M 15 15 L 40 15" stroke="#cc0000" stroke-width="1" opacity="0.4" fill="none"/>
  <path d="M 585 15 L 585 40 M 585 15 L 560 15" stroke="#cc0000" stroke-width="1" opacity="0.4" fill="none"/>
  <path d="M 15 385 L 15 360 M 15 385 L 40 385" stroke="#cc0000" stroke-width="1" opacity="0.4" fill="none"/>
  <path d="M 585 385 L 585 360 M 585 385 L 560 385" stroke="#cc0000" stroke-width="1" opacity="0.4" fill="none"/>
  <!-- Gene expression heatmap grid -->
  <g transform="translate(120, 70)">
    <!-- Row labels -->
    <text x="-8" y="18" text-anchor="end" font-family="monospace" font-size="7" fill="#555">BRCA</text>
    <text x="-8" y="38" text-anchor="end" font-family="monospace" font-size="7" fill="#555">LUAD</text>
    <text x="-8" y="58" text-anchor="end" font-family="monospace" font-size="7" fill="#555">KIRC</text>
    <text x="-8" y="78" text-anchor="end" font-family="monospace" font-size="7" fill="#555">PRAD</text>
    <text x="-8" y="98" text-anchor="end" font-family="monospace" font-size="7" fill="#555">THCA</text>
    <text x="-8" y="118" text-anchor="end" font-family="monospace" font-size="7" fill="#555">COAD</text>
    <text x="-8" y="138" text-anchor="end" font-family="monospace" font-size="7" fill="#555">LIHC</text>
    <text x="-8" y="158" text-anchor="end" font-family="monospace" font-size="7" fill="#555">STAD</text>
    <text x="-8" y="178" text-anchor="end" font-family="monospace" font-size="7" fill="#555">BLCA</text>
    <text x="-8" y="198" text-anchor="end" font-family="monospace" font-size="7" fill="#555">HNSC</text>
    <text x="-8" y="218" text-anchor="end" font-family="monospace" font-size="7" fill="#555">OV</text>
    <text x="-8" y="238" text-anchor="end" font-family="monospace" font-size="7" fill="#555">UCEC</text>
    <!-- Heatmap cells - 18 columns x 12 rows -->
    <!-- Row 1 -->
    <rect x="0" y="8" width="18" height="16" fill="#cc0000" opacity="0.9"/><rect x="20" y="8" width="18" height="16" fill="#882222" opacity="0.8"/><rect x="40" y="8" width="18" height="16" fill="#cc0000" opacity="0.7"/><rect x="60" y="8" width="18" height="16" fill="#331111"/><rect x="80" y="8" width="18" height="16" fill="#cc0000" opacity="0.5"/><rect x="100" y="8" width="18" height="16" fill="#221111"/><rect x="120" y="8" width="18" height="16" fill="#882222"/><rect x="140" y="8" width="18" height="16" fill="#cc0000" opacity="0.8"/><rect x="160" y="8" width="18" height="16" fill="#441111"/><rect x="180" y="8" width="18" height="16" fill="#cc0000" opacity="0.6"/><rect x="200" y="8" width="18" height="16" fill="#331111"/><rect x="220" y="8" width="18" height="16" fill="#882222" opacity="0.7"/><rect x="240" y="8" width="18" height="16" fill="#cc0000"/><rect x="260" y="8" width="18" height="16" fill="#551111"/><rect x="280" y="8" width="18" height="16" fill="#cc0000" opacity="0.4"/><rect x="300" y="8" width="18" height="16" fill="#662222"/><rect x="320" y="8" width="18" height="16" fill="#cc0000" opacity="0.9"/><rect x="340" y="8" width="18" height="16" fill="#221111"/>
    <!-- Row 2 -->
    <rect x="0" y="28" width="18" height="16" fill="#331111"/><rect x="20" y="28" width="18" height="16" fill="#cc0000" opacity="0.4"/><rect x="40" y="28" width="18" height="16" fill="#221111"/><rect x="60" y="28" width="18" height="16" fill="#cc0000" opacity="0.9"/><rect x="80" y="28" width="18" height="16" fill="#662222"/><rect x="100" y="28" width="18" height="16" fill="#cc0000" opacity="0.7"/><rect x="120" y="28" width="18" height="16" fill="#441111"/><rect x="140" y="28" width="18" height="16" fill="#221111"/><rect x="160" y="28" width="18" height="16" fill="#cc0000" opacity="0.5"/><rect x="180" y="28" width="18" height="16" fill="#882222"/><rect x="200" y="28" width="18" height="16" fill="#cc0000" opacity="0.8"/><rect x="220" y="28" width="18" height="16" fill="#331111"/><rect x="240" y="28" width="18" height="16" fill="#551111"/><rect x="260" y="28" width="18" height="16" fill="#cc0000" opacity="0.6"/><rect x="280" y="28" width="18" height="16" fill="#221111"/><rect x="300" y="28" width="18" height="16" fill="#cc0000" opacity="0.3"/><rect x="320" y="28" width="18" height="16" fill="#882222" opacity="0.5"/><rect x="340" y="28" width="18" height="16" fill="#cc0000" opacity="0.7"/>
    <!-- Row 3 -->
    <rect x="0" y="48" width="18" height="16" fill="#cc0000" opacity="0.6"/><rect x="20" y="48" width="18" height="16" fill="#221111"/><rect x="40" y="48" width="18" height="16" fill="#662222"/><rect x="60" y="48" width="18" height="16" fill="#441111"/><rect x="80" y="48" width="18" height="16" fill="#cc0000" opacity="0.8"/><rect x="100" y="48" width="18" height="16" fill="#331111"/><rect x="120" y="48" width="18" height="16" fill="#cc0000" opacity="0.9"/><rect x="140" y="48" width="18" height="16" fill="#551111"/><rect x="160" y="48" width="18" height="16" fill="#221111"/><rect x="180" y="48" width="18" height="16" fill="#cc0000" opacity="0.4"/><rect x="200" y="48" width="18" height="16" fill="#662222"/><rect x="220" y="48" width="18" height="16" fill="#cc0000" opacity="0.7"/><rect x="240" y="48" width="18" height="16" fill="#331111"/><rect x="260" y="48" width="18" height="16" fill="#882222"/><rect x="280" y="48" width="18" height="16" fill="#cc0000" opacity="0.5"/><rect x="300" y="48" width="18" height="16" fill="#441111"/><rect x="320" y="48" width="18" height="16" fill="#221111"/><rect x="340" y="48" width="18" height="16" fill="#cc0000" opacity="0.8"/>
    <!-- Row 4 -->
    <rect x="0" y="68" width="18" height="16" fill="#441111"/><rect x="20" y="68" width="18" height="16" fill="#cc0000" opacity="0.7"/><rect x="40" y="68" width="18" height="16" fill="#882222"/><rect x="60" y="68" width="18" height="16" fill="#cc0000" opacity="0.3"/><rect x="80" y="68" width="18" height="16" fill="#221111"/><rect x="100" y="68" width="18" height="16" fill="#cc0000" opacity="0.9"/><rect x="120" y="68" width="18" height="16" fill="#551111"/><rect x="140" y="68" width="18" height="16" fill="#cc0000" opacity="0.6"/><rect x="160" y="68" width="18" height="16" fill="#331111"/><rect x="180" y="68" width="18" height="16" fill="#221111"/><rect x="200" y="68" width="18" height="16" fill="#cc0000" opacity="0.5"/><rect x="220" y="68" width="18" height="16" fill="#441111"/><rect x="240" y="68" width="18" height="16" fill="#cc0000" opacity="0.8"/><rect x="260" y="68" width="18" height="16" fill="#221111"/><rect x="280" y="68" width="18" height="16" fill="#662222"/><rect x="300" y="68" width="18" height="16" fill="#cc0000" opacity="0.7"/><rect x="320" y="68" width="18" height="16" fill="#551111"/><rect x="340" y="68" width="18" height="16" fill="#331111"/>
    <!-- Row 5 -->
    <rect x="0" y="88" width="18" height="16" fill="#cc0000" opacity="0.3"/><rect x="20" y="88" width="18" height="16" fill="#551111"/><rect x="40" y="88" width="18" height="16" fill="#cc0000" opacity="0.9"/><rect x="60" y="88" width="18" height="16" fill="#221111"/><rect x="80" y="88" width="18" height="16" fill="#441111"/><rect x="100" y="88" width="18" height="16" fill="#662222"/><rect x="120" y="88" width="18" height="16" fill="#cc0000" opacity="0.4"/><rect x="140" y="88" width="18" height="16" fill="#882222"/><rect x="160" y="88" width="18" height="16" fill="#cc0000" opacity="0.7"/><rect x="180" y="88" width="18" height="16" fill="#331111"/><rect x="200" y="88" width="18" height="16" fill="#221111"/><rect x="220" y="88" width="18" height="16" fill="#cc0000" opacity="0.6"/><rect x="240" y="88" width="18" height="16" fill="#441111"/><rect x="260" y="88" width="18" height="16" fill="#cc0000" opacity="0.5"/><rect x="280" y="88" width="18" height="16" fill="#882222"/><rect x="300" y="88" width="18" height="16" fill="#221111"/><rect x="320" y="88" width="18" height="16" fill="#cc0000" opacity="0.8"/><rect x="340" y="88" width="18" height="16" fill="#662222"/>
    <!-- Row 6 -->
    <rect x="0" y="108" width="18" height="16" fill="#882222"/><rect x="20" y="108" width="18" height="16" fill="#cc0000" opacity="0.5"/><rect x="40" y="108" width="18" height="16" fill="#331111"/><rect x="60" y="108" width="18" height="16" fill="#cc0000" opacity="0.7"/><rect x="80" y="108" width="18" height="16" fill="#cc0000" opacity="0.9"/><rect x="100" y="108" width="18" height="16" fill="#221111"/><rect x="120" y="108" width="18" height="16" fill="#662222"/><rect x="140" y="108" width="18" height="16" fill="#cc0000" opacity="0.3"/><rect x="160" y="108" width="18" height="16" fill="#441111"/><rect x="180" y="108" width="18" height="16" fill="#cc0000" opacity="0.8"/><rect x="200" y="108" width="18" height="16" fill="#551111"/><rect x="220" y="108" width="18" height="16" fill="#221111"/><rect x="240" y="108" width="18" height="16" fill="#cc0000" opacity="0.6"/><rect x="260" y="108" width="18" height="16" fill="#331111"/><rect x="280" y="108" width="18" height="16" fill="#cc0000" opacity="0.4"/><rect x="300" y="108" width="18" height="16" fill="#882222"/><rect x="320" y="108" width="18" height="16" fill="#441111"/><rect x="340" y="108" width="18" height="16" fill="#cc0000" opacity="0.9"/>
    <!-- Rows 7-12 (compressed) -->
    <rect x="0" y="128" width="18" height="16" fill="#221111"/><rect x="20" y="128" width="18" height="16" fill="#cc0000" opacity="0.8"/><rect x="40" y="128" width="18" height="16" fill="#441111"/><rect x="60" y="128" width="18" height="16" fill="#662222"/><rect x="80" y="128" width="18" height="16" fill="#331111"/><rect x="100" y="128" width="18" height="16" fill="#cc0000" opacity="0.6"/><rect x="120" y="128" width="18" height="16" fill="#221111"/><rect x="140" y="128" width="18" height="16" fill="#cc0000" opacity="0.9"/><rect x="160" y="128" width="18" height="16" fill="#882222"/><rect x="180" y="128" width="18" height="16" fill="#551111"/><rect x="200" y="128" width="18" height="16" fill="#cc0000" opacity="0.4"/><rect x="220" y="128" width="18" height="16" fill="#cc0000" opacity="0.7"/><rect x="240" y="128" width="18" height="16" fill="#221111"/><rect x="260" y="128" width="18" height="16" fill="#441111"/><rect x="280" y="128" width="18" height="16" fill="#cc0000" opacity="0.8"/><rect x="300" y="128" width="18" height="16" fill="#331111"/><rect x="320" y="128" width="18" height="16" fill="#cc0000" opacity="0.5"/><rect x="340" y="128" width="18" height="16" fill="#662222"/>
    <rect x="0" y="148" width="18" height="16" fill="#cc0000" opacity="0.5"/><rect x="20" y="148" width="18" height="16" fill="#331111"/><rect x="40" y="148" width="18" height="16" fill="#cc0000" opacity="0.7"/><rect x="60" y="148" width="18" height="16" fill="#882222"/><rect x="80" y="148" width="18" height="16" fill="#cc0000" opacity="0.4"/><rect x="100" y="148" width="18" height="16" fill="#441111"/><rect x="120" y="148" width="18" height="16" fill="#cc0000" opacity="0.8"/><rect x="140" y="148" width="18" height="16" fill="#221111"/><rect x="160" y="148" width="18" height="16" fill="#551111"/><rect x="180" y="148" width="18" height="16" fill="#cc0000" opacity="0.9"/><rect x="200" y="148" width="18" height="16" fill="#662222"/><rect x="220" y="148" width="18" height="16" fill="#221111"/><rect x="240" y="148" width="18" height="16" fill="#cc0000" opacity="0.6"/><rect x="260" y="148" width="18" height="16" fill="#cc0000" opacity="0.3"/><rect x="280" y="148" width="18" height="16" fill="#331111"/><rect x="300" y="148" width="18" height="16" fill="#cc0000" opacity="0.7"/><rect x="320" y="148" width="18" height="16" fill="#882222"/><rect x="340" y="148" width="18" height="16" fill="#441111"/>
    <rect x="0" y="168" width="18" height="16" fill="#662222"/><rect x="20" y="168" width="18" height="16" fill="#cc0000" opacity="0.9"/><rect x="40" y="168" width="18" height="16" fill="#221111"/><rect x="60" y="168" width="18" height="16" fill="#cc0000" opacity="0.5"/><rect x="80" y="168" width="18" height="16" fill="#551111"/><rect x="100" y="168" width="18" height="16" fill="#cc0000" opacity="0.3"/><rect x="120" y="168" width="18" height="16" fill="#882222"/><rect x="140" y="168" width="18" height="16" fill="#cc0000" opacity="0.7"/><rect x="160" y="168" width="18" height="16" fill="#331111"/><rect x="180" y="168" width="18" height="16" fill="#441111"/><rect x="200" y="168" width="18" height="16" fill="#cc0000" opacity="0.8"/><rect x="220" y="168" width="18" height="16" fill="#cc0000" opacity="0.4"/><rect x="240" y="168" width="18" height="16" fill="#551111"/><rect x="260" y="168" width="18" height="16" fill="#882222"/><rect x="280" y="168" width="18" height="16" fill="#221111"/><rect x="300" y="168" width="18" height="16" fill="#cc0000" opacity="0.6"/><rect x="320" y="168" width="18" height="16" fill="#331111"/><rect x="340" y="168" width="18" height="16" fill="#cc0000" opacity="0.9"/>
    <rect x="0" y="188" width="18" height="16" fill="#cc0000" opacity="0.4"/><rect x="20" y="188" width="18" height="16" fill="#441111"/><rect x="40" y="188" width="18" height="16" fill="#cc0000" opacity="0.8"/><rect x="60" y="188" width="18" height="16" fill="#331111"/><rect x="80" y="188" width="18" height="16" fill="#cc0000" opacity="0.6"/><rect x="100" y="188" width="18" height="16" fill="#882222"/><rect x="120" y="188" width="18" height="16" fill="#221111"/><rect x="140" y="188" width="18" height="16" fill="#cc0000" opacity="0.5"/><rect x="160" y="188" width="18" height="16" fill="#cc0000" opacity="0.9"/><rect x="180" y="188" width="18" height="16" fill="#662222"/><rect x="200" y="188" width="18" height="16" fill="#331111"/><rect x="220" y="188" width="18" height="16" fill="#cc0000" opacity="0.7"/><rect x="240" y="188" width="18" height="16" fill="#882222"/><rect x="260" y="188" width="18" height="16" fill="#221111"/><rect x="280" y="188" width="18" height="16" fill="#cc0000" opacity="0.9"/><rect x="300" y="188" width="18" height="16" fill="#551111"/><rect x="320" y="188" width="18" height="16" fill="#cc0000" opacity="0.3"/><rect x="340" y="188" width="18" height="16" fill="#441111"/>
    <rect x="0" y="208" width="18" height="16" fill="#551111"/><rect x="20" y="208" width="18" height="16" fill="#cc0000" opacity="0.6"/><rect x="40" y="208" width="18" height="16" fill="#441111"/><rect x="60" y="208" width="18" height="16" fill="#cc0000" opacity="0.9"/><rect x="80" y="208" width="18" height="16" fill="#221111"/><rect x="100" y="208" width="18" height="16" fill="#cc0000" opacity="0.5"/><rect x="120" y="208" width="18" height="16" fill="#331111"/><rect x="140" y="208" width="18" height="16" fill="#882222"/><rect x="160" y="208" width="18" height="16" fill="#cc0000" opacity="0.7"/><rect x="180" y="208" width="18" height="16" fill="#cc0000" opacity="0.3"/><rect x="200" y="208" width="18" height="16" fill="#441111"/><rect x="220" y="208" width="18" height="16" fill="#551111"/><rect x="240" y="208" width="18" height="16" fill="#cc0000" opacity="0.8"/><rect x="260" y="208" width="18" height="16" fill="#662222"/><rect x="280" y="208" width="18" height="16" fill="#cc0000" opacity="0.4"/><rect x="300" y="208" width="18" height="16" fill="#cc0000" opacity="0.7"/><rect x="320" y="208" width="18" height="16" fill="#221111"/><rect x="340" y="208" width="18" height="16" fill="#882222"/>
    <rect x="0" y="228" width="18" height="16" fill="#cc0000" opacity="0.7"/><rect x="20" y="228" width="18" height="16" fill="#221111"/><rect x="40" y="228" width="18" height="16" fill="#551111"/><rect x="60" y="228" width="18" height="16" fill="#cc0000" opacity="0.4"/><rect x="80" y="228" width="18" height="16" fill="#882222"/><rect x="100" y="228" width="18" height="16" fill="#cc0000" opacity="0.8"/><rect x="120" y="228" width="18" height="16" fill="#cc0000" opacity="0.6"/><rect x="140" y="228" width="18" height="16" fill="#441111"/><rect x="160" y="228" width="18" height="16" fill="#331111"/><rect x="180" y="228" width="18" height="16" fill="#cc0000" opacity="0.5"/><rect x="200" y="228" width="18" height="16" fill="#cc0000" opacity="0.9"/><rect x="220" y="228" width="18" height="16" fill="#662222"/><rect x="240" y="228" width="18" height="16" fill="#221111"/><rect x="260" y="228" width="18" height="16" fill="#cc0000" opacity="0.7"/><rect x="280" y="228" width="18" height="16" fill="#551111"/><rect x="300" y="228" width="18" height="16" fill="#441111"/><rect x="320" y="228" width="18" height="16" fill="#cc0000" opacity="0.6"/><rect x="340" y="228" width="18" height="16" fill="#331111"/>
    <!-- Grid border -->
    <rect x="-1" y="7" width="362" height="240" fill="none" stroke="#cc0000" stroke-width="0.5" opacity="0.3"/>
  </g>
  <!-- Accuracy readout -->
  <text x="520" y="120" text-anchor="middle" font-family="monospace" font-size="9" fill="#cc0000" opacity="0.5">ACCURACY</text>
  <text x="520" y="150" text-anchor="middle" font-family="monospace" font-size="30" fill="#cc0000" font-weight="bold">95%</text>
  <text x="520" y="168" text-anchor="middle" font-family="monospace" font-size="8" fill="#555">TEST_SET</text>
  <text x="520" y="210" text-anchor="middle" font-family="monospace" font-size="8" fill="#444">CLASSES: 30+</text>
  <text x="520" y="225" text-anchor="middle" font-family="monospace" font-size="8" fill="#444">METHOD: PCA+MLR</text>
  <text x="520" y="240" text-anchor="middle" font-family="monospace" font-size="8" fill="#444">FEATURES: 20K+</text>
  <!-- Labels -->
  <text x="300" y="38" text-anchor="middle" font-family="monospace" font-size="11" fill="#cc0000" opacity="0.5" letter-spacing="6">RNA_SEQ_CLASSIFIER</text>
  <line x1="180" y1="45" x2="420" y2="45" stroke="#cc0000" stroke-width="0.5" opacity="0.2"/>
  <text x="30" y="375" font-family="monospace" font-size="9" fill="#cc0000" opacity="0.4">SRC:TCGA_PAN_CANCER</text>
  <text x="570" y="375" text-anchor="end" font-family="monospace" font-size="9" fill="#444">BIOINFORMATICS//ML</text>
</svg>
